<svg xmlns="http://www.w3.org/2000/svg" viewBox="-10.0 12 544.2 102.0" fill="none">
  <defs>
    <linearGradient id="mqLogoSym" x1="22" y1="20" x2="84" y2="92" gradientUnits="userSpaceOnUse">
      <stop offset="0" stop-color="#a3e35a"/><stop offset="0.42" stop-color="#33c8f4"/>
      <stop offset="0.72" stop-color="#4aa6f6"/><stop offset="1" stop-color="#9b78f6"/>
    </linearGradient>
  </defs>
  <path d="M5.50 96.16L22.87 96.16L22.87 63.88C22.87 58.49 26.03 55.04 30.58 55.04C35.09 55.04 38.07 58.20 38.07 63.25L38.07 96.16L54.76 96.16L54.76 63.60C54.76 58.38 57.63 55.04 62.43 55.04C66.83 55.04 69.96 57.99 69.96 63.42L69.96 96.16L87.32 96.16L87.32 59.45C87.32 47.90 80.22 40.91 69.92 40.91C61.86 40.91 55.50 45.13 53.48 51.63L52.91 51.63C51.46 45.10 45.60 40.91 38.03 40.91C30.58 40.91 24.89 44.99 22.62 51.63L22.02 51.63L22.02 41.62L5.50 41.62ZM123.62 97.19C137.93 97.19 147.34 90.27 149.33 79.55L133.38 79.08C132.03 82.71 128.48 84.66 123.93 84.66C117.26 84.66 113.14 80.22 113.14 73.54L113.14 73.08L149.50 73.08L149.50 68.75C149.50 50.78 138.57 40.91 123.08 40.91C106.61 40.91 96.02 52.20 96.02 69.11C96.02 86.58 106.46 97.19 123.62 97.19ZM113.14 63.00C113.39 57.56 117.68 53.44 123.44 53.44C129.15 53.44 133.27 57.42 133.35 63.00ZM158.42 96.16L175.78 96.16L175.78 66.55C175.82 60.09 180.33 55.79 185.80 55.79C187.89 55.79 189.56 56.43 191.09 57.14L196.20 42.86C194.11 41.65 191.44 40.87 188.57 40.87C182.60 40.87 177.84 44.35 175.85 51.56L175.28 51.56L175.28 41.62L158.42 41.62Z" fill="currentColor"/>
  <g transform="translate(211.30 -2.00) scale(1.12)" stroke="url(#mqLogoSym)" stroke-width="13" stroke-linecap="round" stroke-linejoin="round">
    <path d="M34 24 H63 A14 14 0 0 1 77 38 V53"/>
    <path d="M23 34 V63 A14 14 0 0 0 37 77 H60 L82 93"/>
  </g>
  <path d="M31.00 97.19C45.31 97.19 54.72 90.27 56.71 79.55L40.77 79.08C39.42 82.71 35.87 84.66 31.32 84.66C24.64 84.66 20.53 80.22 20.53 73.54L20.53 73.08L56.89 73.08L56.89 68.75C56.89 50.78 45.95 40.91 30.47 40.91C13.99 40.91 3.41 52.20 3.41 69.11C3.41 86.58 13.85 97.19 31.00 97.19ZM20.53 63.00C20.77 57.56 25.07 53.44 30.82 53.44C36.54 53.44 40.66 57.42 40.73 63.00ZM96.59 41.62L86.75 41.62L86.75 28.55L69.39 28.55L69.39 41.62L62.18 41.62L62.18 54.40L69.39 54.40L69.39 80.93C69.28 91.97 76.46 97.51 88.71 96.95C92.90 96.73 95.92 95.88 97.59 95.38L94.96 82.85C94.21 83.03 92.47 83.38 91.16 83.38C88.35 83.38 86.75 82.24 86.75 79.01L86.75 54.40L96.59 54.40ZM105.47 96.16L122.83 96.16L122.83 41.62L105.47 41.62ZM114.17 35.26C119.11 35.26 123.08 31.53 123.08 26.95C123.08 22.37 119.11 18.68 114.17 18.68C109.27 18.68 105.26 22.37 105.26 26.95C105.26 31.53 109.27 35.26 114.17 35.26ZM149.22 97.09C156.82 97.09 162.07 94.14 165.06 88.57L165.48 88.57L165.48 96.16L181.82 96.16L181.82 59.09C181.82 47.55 171.56 40.91 157.67 40.91C143.00 40.91 134.69 48.30 133.31 58.24L149.33 58.81C150.07 55.33 152.95 53.20 157.53 53.20C161.79 53.20 164.49 55.26 164.49 58.91L164.49 59.09C164.49 62.43 160.87 63.14 151.56 63.96C140.52 64.88 131.29 68.96 131.29 81.04C131.29 91.83 138.78 97.09 149.22 97.09ZM154.58 85.72C150.57 85.72 147.73 83.81 147.73 80.18C147.73 76.67 150.50 74.54 155.43 73.79C158.66 73.33 162.64 72.62 164.60 71.59L164.60 76.78C164.60 82.10 160.12 85.72 154.58 85.72Z" transform="translate(337.30 0)" fill="currentColor"/>
</svg>